PathFileType	4	(X/Y/Z)	C:\Users\Basilio\Documents\Thesis Gigler\squatting_fais\c3dfiles\019\SLS_back_pre4\markers_experimental.trc
DataRate	CameraRate	NumFrames	NumMarkers	Units	OrigDataRate	OrigDataStartFrame	OrigNumFrames
200.000000	200.000000	4	59	mm	200.000000	1222	1397
Frame#	Time	FHD			LBHD			RBHD			C7			T10			CLAV			LSHO			LUUPA			LMUPA			LDUPA			LLEP			LMEP			LRAD			LUL			LRFIN			RSHO			RUPA1			RMUPA			RDUPA			RLEP			RMEP			RRAD			RUL			RUFIN			LASI			RASI			USACR			LSACR			RSACR			LTHI1			LTHI2			LTHI3			LTHI4			LLFC			LTIB1			LTIB2			LTIB3			LTIB4			LLMAL			LMMAL			LHEE			LMT1			LMT2			LMT5			RTHI2			RTHI4			RLFC			RTIB1			RTIB2			RTIB3			RTIB4			RLMAL			RMMAL			RHEE			RMT1			RMT2			RMT5			RTHI3			RTHI			
		X1	Y1	Z1	X2	Y2	Z2	X3	Y3	Z3	X4	Y4	Z4	X5	Y5	Z5	X6	Y6	Z6	X7	Y7	Z7	X8	Y8	Z8	X9	Y9	Z9	X10	Y10	Z10	X11	Y11	Z11	X12	Y12	Z12	X13	Y13	Z13	X14	Y14	Z14	X15	Y15	Z15	X16	Y16	Z16	X17	Y17	Z17	X18	Y18	Z18	X19	Y19	Z19	X20	Y20	Z20	X21	Y21	Z21	X22	Y22	Z22	X23	Y23	Z23	X24	Y24	Z24	X25	Y25	Z25	X26	Y26	Z26	X27	Y27	Z27	X28	Y28	Z28	X29	Y29	Z29	X30	Y30	Z30	X31	Y31	Z31	X32	Y32	Z32	X33	Y33	Z33	X34	Y34	Z34	X35	Y35	Z35	X36	Y36	Z36	X37	Y37	Z37	X38	Y38	Z38	X39	Y39	Z39	X40	Y40	Z40	X41	Y41	Z41	X42	Y42	Z42	X43	Y43	Z43	X44	Y44	Z44	X45	Y45	Z45	X46	Y46	Z46	X47	Y47	Z47	X48	Y48	Z48	X49	Y49	Z49	X50	Y50	Z50	X51	Y51	Z51	X52	Y52	Z52	X53	Y53	Z53	X54	Y54	Z54	X55	Y55	Z55	X56	Y56	Z56	X57	Y57	Z57	X58	Y58	Z58	X59	Y59	Z59	

1223	6.11	-212.6777496337891	1721.363403320313	-642.6469116210939	-345.7059326171876	1686.609985351563	-781.2205200195315	-344.0212097167969	1681.129516601563	-641.0410156250001	-371.4571533203126	1512.62451171875	-705.4685058593751	-403.7342834472657	1220.239379882813	-713.7677612304689	-232.6446990966797	1467.2412109375	-712.3948974609376	-288.2434997558594	1522.154174804688	-845.9565429687502	-161.4311218261719	1477.221557617188	-900.6721801757815	-137.082260131836	1471.884399414063	-858.6036376953127	-95.24606323242189	1466.447387695313	-901.9055786132815	-28.0832920074463	1423.188842773438	-929.279724121094	-36.9121437072754	1368.1181640625	-909.1782836914065	210.2978057861329	1437.45166015625	-848.1843261718752	218.1737670898438	1387.794921875	-890.6597290039065	282.8066101074219	1454.728271484375	-852.410095214844	-279.6531677246094	1508.544799804688	-581.5077514648439	-165.6727447509766	1407.186767578125	-494.7667846679689	-134.4387359619141	1441.31103515625	-517.7363281250001	-98.39661407470706	1396.825073242188	-499.1878051757814	-23.31278610229493	1383.64208984375	-511.5395812988282	-36.67897415161134	1340.350952148438	-544.8800659179689	218.2556610107422	1437.48291015625	-567.8292236328126	230.2503814697266	1380.166870117188	-543.4067382812501	301.7634277343751	1447.836059570313	-554.5780639648439	-260.2668151855469	1023.936889648438	-854.6068115234377	-238.9149627685547	1001.491882324219	-648.4519653320314	-408.3914184570314	1088.3974609375	-728.4977416992189	-417.5358886718751	1059.01513671875	-759.3375854492189	-409.6124572753907	1054.059326171875	-702.3798828125001	-262.3893432617188	781.2592773437502	-957.3986816406252	-201.0961914062501	723.5480346679689	-970.5296630859377	-157.4696044921875	739.5888061523439	-955.7825927734377	-205.8830261230469	661.9570312500001	-965.6389160156252	-191.1492309570313	581.9912719726564	-954.7155761718752	-265.3275146484376	473.1548767089845	-907.712341308594	-334.0736694335938	506.1800842285157	-950.7586059570315	-319.4053039550782	473.0060119628907	-927.4853515625002	-388.7224121093751	451.2182006835939	-879.4214477539065	-537.0822753906251	471.8574218750001	-881.477233886719	-507.0646057128907	458.9147338867189	-803.2349243164065	-580.0047607421876	523.1255493164064	-825.966247558594	-539.7020874023439	316.2028503417969	-792.8599243164065	-550.7407836914064	308.1434631347657	-830.0676269531252	-595.3984985351564	338.3373413085938	-873.9406738281252	-256.2320251464844	744.0607299804689	-600.2975463867189	-287.1611022949219	669.1901245117189	-603.0916137695314	-332.2411804199219	512.4669799804689	-645.2619628906251	-296.9363708496094	336.4947814941407	-719.7952270507814	-349.9017333984376	252.8367767333985	-669.6330566406251	-316.8199462890626	252.8887176513672	-703.1322021484376	-329.3263244628907	215.3308410644532	-746.4265747070314	-391.3773498535157	127.5212097167969	-710.4985351562501	-377.1880187988282	136.5145721435547	-785.017761230469	-456.0403442382814	105.7120361328125	-761.3555297851564	-257.2116699218751	54.5530128479004	-786.9314575195315	-252.2278289794922	59.0150604248047	-741.4088134765626	-292.2733764648438	48.12696075439455	-686.9288330078126	-231.5289916992188	751.1762084960939	-623.0513305664064	-293.3226928710938	798.436218261719	-589.1557617187501	
1224	6.115	-213.1023406982422	1721.348266601563	-642.9039916992189	-345.8336486816407	1686.530395507813	-781.3966064453127	-344.5123596191407	1680.993530273438	-641.3536987304689	-371.9334411621094	1512.533935546875	-705.6440429687501	-403.8093872070314	1220.174072265625	-713.7963256835939	-232.9663238525391	1467.389282226563	-712.5223388671876	-288.6424255371094	1522.060913085938	-846.088317871094	-161.816146850586	1477.204833984375	-900.829772949219	-137.3575134277344	1471.762939453125	-858.664001464844	-95.53943634033205	1466.46923828125	-902.0085449218752	-28.46734237670899	1423.166259765625	-929.4131469726565	-37.21593856811524	1368.1162109375	-909.270935058594	209.9643249511719	1437.586547851563	-848.3921508789065	217.7733306884766	1387.955078125	-890.850036621094	282.4816589355469	1454.889282226563	-852.5359497070315	-280.2128906250001	1508.609130859375	-581.9051513671876	-166.0583038330078	1407.298461914063	-494.8660888671876	-134.7381896972657	1441.395751953125	-517.8428344726564	-98.82776641845706	1397.0078125	-499.322235107422	-23.55247497558594	1383.7919921875	-511.704315185547	-37.06451416015626	1340.520629882813	-544.9080810546876	217.9671325683594	1437.658447265625	-567.9923706054689	229.9944458007813	1380.54443359375	-543.4849243164064	301.3482055664063	1448.291015625	-554.5770874023439	-260.4053039550782	1023.895935058594	-854.6556396484377	-238.8587036132813	1001.524291992188	-648.4443359375001	-408.5461425781251	1088.258544921875	-728.4797973632814	-417.5170898437501	1058.906005859375	-759.3039550781251	-409.6061401367189	1054.051391601563	-702.3618774414064	-262.3612976074219	781.1116943359377	-957.2763671875002	-201.2377319335938	723.4508666992189	-970.484313964844	-157.5081787109375	739.5198364257814	-955.6928710937502	-205.8745880126954	661.8787841796876	-965.435241699219	-190.9990692138672	581.9274902343751	-954.4129638671877	-265.1715698242188	473.0361328125001	-907.368103027344	-334.0894470214844	505.9740600585939	-950.4426879882815	-319.3850097656251	472.8627014160157	-927.1531372070315	-388.5970153808595	451.0725402832032	-878.9919433593752	-536.9011840820314	471.5575561523439	-880.9082031250002	-506.840301513672	458.6436157226564	-802.5961914062502	-579.8531494140626	522.7675170898439	-825.4272460937502	-539.5244750976564	315.8583679199219	-792.277038574219	-550.4812622070314	307.8159484863282	-829.398620605469	-595.2291259765626	337.8653259277344	-873.4121093750002	-256.2314758300782	744.0551147460939	-600.2962036132814	-287.1327514648438	669.1935424804689	-603.1055908203126	-332.2151794433594	512.4495239257814	-645.2629394531251	-296.9894714355469	336.4927673339844	-719.8431396484376	-349.8583679199219	252.7861328125001	-669.6739501953126	-316.9210815429688	252.8473205566407	-703.2065429687501	-329.3536987304688	215.3074493408204	-746.4614257812501	-391.3518066406251	127.4742660522461	-710.4834594726564	-377.2409667968751	136.4784698486328	-785.0239257812502	-456.0077209472657	105.61767578125	-761.3522949218751	-257.2489318847657	54.53869628906251	-786.941833496094	-252.2618560791016	58.99277496337892	-741.4229736328126	-292.2353515625001	48.12739181518556	-686.9532470703126	-231.4306945800782	751.2122192382814	-623.1047363281251	-293.3245849609376	798.440612792969	-589.1578369140626	
1225	6.12	-213.4501190185547	1721.098876953125	-642.5504760742189	-345.7973632812501	1686.429443359375	-781.5555419921877	-344.8882141113282	1680.959838867188	-641.5816040039064	-372.3039245605469	1512.50146484375	-705.8164062500001	-404.0167236328126	1220.034057617188	-713.8906860351564	-233.639877319336	1467.32470703125	-712.6925659179689	-289.0264282226563	1522.007202148438	-846.1953125000002	-162.1984252929688	1477.188232421875	-900.9981689453127	-137.5023956298828	1471.656005859375	-858.7251586914065	-96.077995300293	1466.503662109375	-902.2093505859377	-28.80169677734376	1423.23291015625	-929.5732421875002	-37.60020065307618	1368.184326171875	-909.3526611328127	209.7619171142579	1437.579345703125	-848.5283813476565	217.4726257324219	1388.104248046875	-891.0167236328127	282.0561218261719	1455.287353515625	-852.753845214844	-280.5661010742188	1508.566528320313	-581.9840698242189	-166.3603515625	1407.405883789063	-495.0306396484376	-134.922103881836	1441.66796875	-517.8768310546876	-98.94924163818362	1397.143798828125	-499.4237365722657	-23.83715629577637	1383.992309570313	-511.8427734375001	-37.38162994384766	1340.6123046875	-545.1626586914064	217.5452880859376	1438.115112304688	-568.0817871093751	229.6315612792969	1380.847412109375	-543.5306396484376	301.9150695800782	1448.284423828125	-555.0620117187501	-260.6037292480469	1023.890808105469	-854.7211914062502	-238.6885681152344	1001.661804199219	-648.3944091796876	-408.6181945800782	1088.145385742188	-728.4263916015626	-417.4947509765626	1058.825439453125	-759.2359619140626	-409.8016967773439	1053.9296875	-702.3248901367189	-262.5060424804688	780.957458496094	-957.1780395507815	-201.2863006591797	723.2887573242189	-970.372009277344	-157.6191101074219	739.3925170898439	-955.6228027343752	-205.9354095458985	661.7761840820314	-965.2489013671877	-191.0357055664063	581.7774047851564	-954.2581787109377	-265.0238037109376	472.9631958007814	-906.9884033203127	-334.3555603027344	505.8402099609376	-949.6301269531252	-319.3011169433594	472.7371520996095	-926.8154296875002	-388.4891357421876	450.882049560547	-878.642028808594	-536.7503662109376	471.1870117187501	-880.4072265625002	-506.6896972656251	458.3707275390626	-802.1365356445315	-579.6835327148439	522.4803466796876	-824.8650512695315	-539.1008300781251	315.6934814453126	-791.7434082031252	-550.0938720703126	307.4922485351563	-828.763610839844	-595.0183715820314	337.5519409179688	-872.7766723632815	-256.1342468261719	744.0379028320314	-600.3792114257814	-286.9602355957032	669.1486206054689	-603.1123657226564	-332.0143432617188	512.4358520507814	-645.2362670898439	-296.8844299316407	336.4253845214844	-719.8934936523439	-349.8394165039063	252.7561798095704	-669.6558227539064	-316.8596496582032	252.7901763916016	-703.2684326171876	-329.3469543457032	215.2675476074219	-746.4671630859376	-391.3750305175782	127.4596557617188	-710.4765014648439	-377.1785583496094	136.3295593261719	-785.0056152343752	-455.9461059570314	105.5703277587891	-761.3923950195314	-257.2666320800782	54.5360794067383	-786.9193115234377	-252.2623138427735	59.00966644287111	-741.4172973632814	-292.2914733886719	48.14538574218751	-686.9249877929689	-231.4421691894532	751.1208496093751	-623.1138305664064	-293.2004699707032	798.438171386719	-589.2130737304689	
1226	6.125	-213.7643585205079	1720.844970703125	-642.5941162109376	-345.7519226074219	1686.254272460938	-781.740173339844	-345.3139038085938	1680.9345703125	-641.8052368164064	-372.8219299316407	1512.380493164063	-706.0173950195314	-404.1512451171876	1219.930297851563	-713.8709716796876	-234.9149780273438	1467.171630859375	-712.7630004882814	-289.6361694335938	1521.990844726563	-846.5056152343752	-162.6222534179688	1477.11279296875	-901.1693115234377	-137.7260284423828	1471.690795898438	-858.7966308593752	-96.38953399658206	1466.5322265625	-902.3628540039065	-29.14473915100098	1423.246459960938	-929.6963500976565	-37.9352149963379	1368.233154296875	-909.4486083984377	209.4378051757813	1437.797607421875	-848.6211547851565	217.122299194336	1388.269165039063	-891.1413574218752	281.7025756835938	1455.482299804688	-852.9062500000002	-281.0372009277344	1508.683715820313	-582.1933593750001	-166.6649475097657	1407.544921875	-495.2544555664064	-135.3909759521485	1441.652221679688	-518.0329589843751	-99.21871185302737	1397.390869140625	-499.5410156250001	-24.09362792968751	1384.233276367188	-512.0100097656251	-37.65542221069337	1340.73779296875	-545.3539428710939	217.259506225586	1438.527465820313	-568.2002563476564	229.2268981933594	1381.314453125	-543.6453857421876	301.5004272460938	1448.757934570313	-555.1340942382814	-260.7116394042969	1023.855529785156	-854.7849121093752	-238.7053985595704	1001.654602050781	-648.5145874023439	-408.5991821289064	1088.063842773438	-728.4048461914064	-417.6243591308595	1058.653930664063	-759.2272338867189	-409.8792419433595	1053.933227539063	-702.3073730468751	-262.5640869140626	780.846374511719	-957.0947265625002	-201.3092803955079	723.2264404296876	-970.283386230469	-157.6308746337891	739.3189697265626	-955.5896606445315	-205.9607391357422	661.6729125976564	-965.1089477539065	-191.0101013183594	581.6737060546876	-954.0025024414065	-265.0000305175782	472.8404541015626	-906.697204589844	-334.2936096191407	505.6844177246095	-949.2131958007815	-319.2414550781251	472.5406494140626	-926.4688110351565	-388.3572082519532	450.6660766601564	-878.1937255859377	-536.5396118164064	470.8637695312501	-879.847595214844	-506.5675659179689	458.2256774902345	-801.7520141601565	-579.6128540039064	522.1610107421876	-824.3489379882815	-538.9200439453126	315.3353576660157	-791.1132812500002	-549.7985839843751	306.6373901367188	-828.0276489257815	-594.8828125000001	337.2798156738282	-872.149841308594	-256.0985717773438	744.0408325195314	-600.2547607421876	-286.8108825683594	669.0819091796876	-603.1625976562501	-331.9696350097657	512.4986572265626	-645.2674560546876	-296.9271545410157	336.3503112792969	-719.9384765625001	-349.7344055175782	252.7208251953126	-669.6577148437501	-316.7915039062501	252.7513122558594	-703.3175659179689	-329.3822326660157	215.2455291748047	-746.4815673828126	-391.4070129394532	127.4382629394532	-710.5156860351564	-377.1448059082032	136.3072662353516	-785.0275878906252	-456.0760192871095	105.6805191040039	-761.3369140625001	-257.2385559082032	54.5509490966797	-786.9337158203127	-252.3151855468751	59.02378845214845	-741.4224853515626	-292.2054443359376	48.10315704345705	-686.9530029296876	-231.3084259033204	751.1116333007814	-623.1547241210939	-293.0960998535157	798.4708251953127	-589.2386474609376	
